<svg width="91" height="90" viewBox="0 0 91 90" fill="none" xmlns="http://www.w3.org/2000/svg">
<rect width="91" height="90" rx="20" fill="#FFF2F2"/>
<path d="M45.5 25C34.1956 25 25 34.1965 25 45.5C25 56.8035 34.1956 66 45.5 66C56.8044 66 66 56.8035 66 45.5C66 34.1965 56.8044 25 45.5 25ZM45.5 64.2917C35.1382 64.2917 26.7083 55.8618 26.7083 45.5C26.7083 35.1382 35.1382 26.7083 45.5 26.7083C55.8618 26.7083 64.2917 35.1382 64.2917 45.5C64.2917 55.8618 55.8618 64.2917 45.5 64.2917Z" fill="#FF4E4E"/>
<path d="M41.229 33.5417H36.104C34.6909 33.5417 33.5415 34.6912 33.5415 36.1042V41.2292C33.5415 42.6423 34.6909 43.7917 36.104 43.7917H41.229C42.6421 43.7917 43.7915 42.6423 43.7915 41.2292V36.1042C43.7915 34.6912 42.6421 33.5417 41.229 33.5417ZM42.0831 41.2292C42.0831 41.7005 41.6994 42.0834 41.2289 42.0834H36.1039C35.6335 42.0834 35.2497 41.7006 35.2497 41.2292V36.1042C35.2497 35.633 35.6335 35.2501 36.1039 35.2501H41.2289C41.6994 35.2501 42.0831 35.6329 42.0831 36.1042V41.2292Z" fill="#FF4E4E"/>
<path d="M54.896 33.5417H49.771C48.3579 33.5417 47.2085 34.6912 47.2085 36.1042V41.2292C47.2085 42.6423 48.3579 43.7917 49.771 43.7917H54.896C56.3091 43.7917 57.4585 42.6423 57.4585 41.2292V36.1042C57.4585 34.6912 56.3091 33.5417 54.896 33.5417ZM55.7502 41.2292C55.7502 41.7005 55.3665 42.0834 54.896 42.0834H49.771C49.3005 42.0834 48.9168 41.7006 48.9168 41.2292V36.1042C48.9168 35.633 49.3005 35.2501 49.771 35.2501H54.896C55.3665 35.2501 55.7502 35.6329 55.7502 36.1042V41.2292Z" fill="#FF4E4E"/>
<path d="M41.229 47.2083H36.104C34.6909 47.2083 33.5415 48.3577 33.5415 49.7708V54.8958C33.5415 56.3088 34.6909 57.4583 36.104 57.4583H41.229C42.6421 57.4583 43.7915 56.3088 43.7915 54.8958V49.7708C43.7915 48.3578 42.6421 47.2083 41.229 47.2083ZM42.0831 54.8958C42.0831 55.367 41.6994 55.7499 41.2289 55.7499H36.1039C35.6335 55.7499 35.2497 55.3671 35.2497 54.8958V49.7708C35.2497 49.2995 35.6335 48.9166 36.1039 48.9166H41.2289C41.6994 48.9166 42.0831 49.2994 42.0831 49.7708V54.8958Z" fill="#FF4E4E"/>
<path d="M54.896 47.2083H49.771C48.3579 47.2083 47.2085 48.3577 47.2085 49.7708V54.8958C47.2085 56.3088 48.3579 57.4583 49.771 57.4583H54.896C56.3091 57.4583 57.4585 56.3088 57.4585 54.8958V49.7708C57.4585 48.3578 56.3091 47.2083 54.896 47.2083ZM55.7502 54.8958C55.7502 55.367 55.3665 55.7499 54.896 55.7499H49.771C49.3005 55.7499 48.9168 55.3671 48.9168 54.8958V49.7708C48.9168 49.2995 49.3005 48.9166 49.771 48.9166H54.896C55.3665 48.9166 55.7502 49.2994 55.7502 49.7708V54.8958Z" fill="#FF4E4E"/>
</svg>
