<svg width="91" height="90" viewBox="0 0 91 90" fill="none" xmlns="http://www.w3.org/2000/svg">
<rect width="91" height="90" rx="20" fill="#E2F3FF"/>
<g clip-path="url(#clip0_18_536)">
<path d="M46.5138 43.487C46.2007 43.1739 45.6938 43.1739 45.3807 43.487C45.0684 43.7993 45.0684 44.3062 45.3807 44.6193C45.6938 44.9316 46.2007 44.9316 46.5138 44.6193C46.8261 44.3062 46.8261 43.7993 46.5138 43.487Z" fill="#0073C6"/>
<path d="M56.7056 33.2946C55.1409 31.73 52.6078 31.7299 51.043 33.2946C49.4824 34.8552 49.4823 37.3953 51.0433 38.9572C52.6045 40.5175 55.1446 40.5181 56.7056 38.9571C58.2702 37.3925 58.2705 34.8594 56.7056 33.2946ZM55.5731 37.8245C54.6368 38.761 53.1126 38.761 52.1757 37.8247C51.2392 36.8876 51.2391 35.3634 52.1756 34.4271C53.1143 33.4883 54.6342 33.4882 55.5731 34.4271C56.5119 35.3657 56.512 36.8857 55.5731 37.8245Z" fill="#0073C6"/>
<path d="M65.7653 24.2346C65.6081 24.0774 65.3935 23.9922 65.1704 24.0006C64.9893 24.0071 60.6783 24.1803 55.5537 25.9916C51.4473 27.4415 48.0245 29.5174 45.3804 32.1616C44.7879 32.7541 44.2114 33.3823 43.6597 34.0351C41.0453 32.4961 38.9503 32.9787 37.6259 33.6874C34.5765 35.3194 32.689 39.7506 32.689 42.9201C32.6892 43.2439 32.8844 43.536 33.1835 43.6599C33.2826 43.701 33.3867 43.7209 33.4898 43.7209C33.6983 43.7209 33.903 43.6395 34.0562 43.4863C35.6644 41.8781 37.648 41.9787 38.296 42.0639L38.5765 42.3444C38.0246 43.6576 37.58 44.9635 37.2539 46.2337C37.1362 46.6933 37.1759 47.1797 37.3509 47.6246C36.5799 47.9799 35.836 48.5016 35.1884 49.1493C33.1271 51.2107 32.7085 56.2343 32.6917 56.4471C32.6733 56.6807 32.758 56.9107 32.9237 57.0764C33.0745 57.2271 33.2784 57.3109 33.4898 57.3109C33.5108 57.3109 33.5319 57.3101 33.5529 57.3084C33.7658 57.2917 38.7895 56.8731 40.8508 54.8119C41.4983 54.1644 42.0199 53.4207 42.3752 52.6498C42.8462 52.835 43.331 52.8579 43.767 52.7462C45.0365 52.4202 46.3423 51.9757 47.6557 51.4238L47.9361 51.7042C48.0213 52.3523 48.1218 54.3359 46.5137 55.9439C46.2848 56.1729 46.2162 56.5174 46.3402 56.8165C46.4641 57.1158 46.756 57.3108 47.0799 57.3108C50.2494 57.3108 54.6805 55.4233 56.3125 52.3739C57.0213 51.0496 57.5038 48.9546 55.9649 46.3402C56.6173 45.7887 57.2457 45.2122 57.8384 44.6194C60.4826 41.9753 62.5584 38.5525 64.0083 34.4464C65.8196 29.3216 65.9928 25.0105 65.9993 24.8295C66.0073 24.6073 65.9225 24.3918 65.7653 24.2346ZM34.4793 41.1977C34.9768 38.7903 36.4216 36.1486 38.3819 35.0995C39.6919 34.3985 41.1238 34.4672 42.6463 35.3005C41.3492 37.0064 40.2217 38.8441 39.2818 40.7848C39.2699 40.7775 39.1257 40.5962 38.8579 40.5359C38.7478 40.511 36.629 40.0552 34.4793 41.1977ZM39.7184 53.6793C38.6173 54.7804 36.0344 55.3611 34.4018 55.5982C34.639 53.9656 35.2198 51.3828 36.3208 50.2818C36.9374 49.6652 37.6524 49.1977 38.371 48.9344L41.0658 51.6292C40.8025 52.3478 40.3351 53.0627 39.7184 53.6793ZM43.3691 51.1947C43.1374 51.2541 42.869 51.1669 42.6694 50.9677C41.6334 49.9317 41.2282 49.5265 41.101 49.3994C40.8678 49.1662 40.296 48.5944 39.0329 47.3312C38.8332 47.1311 38.7461 46.8628 38.8052 46.6314C39.0617 45.6325 39.3972 44.6077 39.8051 43.573L46.4271 50.195C45.3923 50.603 44.3676 50.9384 43.3691 51.1947ZM54.9007 51.6182C53.8515 53.5784 51.2099 55.0233 48.8026 55.5207C49.5701 54.0763 49.7393 52.2377 49.4589 51.1227C49.3938 50.8638 49.2248 50.7336 49.2154 50.7183C51.1559 49.7784 52.9936 48.6508 54.6996 47.3538C55.533 48.8764 55.6016 50.3084 54.9007 51.6182ZM56.7061 43.487C55.9845 44.2085 55.2075 44.9056 54.3967 45.5588C52.4474 47.1283 50.302 48.4577 48.013 49.5161L40.4841 41.9873C41.5424 39.6982 42.8718 37.5527 44.4412 35.6037C45.095 34.7923 45.792 34.0152 46.5132 33.294C48.8855 30.9216 51.9472 29.0335 55.6158 27.6745L62.3257 34.3844C60.9667 38.0528 59.0787 41.1145 56.7061 43.487ZM62.9018 32.6954L57.3047 27.0983C60.3541 26.1511 63.007 25.7965 64.3312 25.669C64.2037 26.9934 63.8489 29.6463 62.9018 32.6954Z" fill="#0073C6"/>
<path d="M44.2483 57.076C43.9354 56.7633 43.4283 56.7635 43.1157 57.0762L40.8511 59.3416C40.5385 59.6544 40.5386 60.1614 40.8513 60.474C41.1641 60.7867 41.6712 60.7867 41.9838 60.4739L44.2484 58.2085C44.561 57.8957 44.561 57.3886 44.2483 57.076Z" fill="#0073C6"/>
<path d="M32.924 45.7517C32.6114 45.4389 32.1044 45.4389 31.7916 45.7515L29.5262 48.0161C29.2134 48.3288 29.2133 48.8358 29.5259 49.1486C29.8385 49.4612 30.3454 49.4615 30.6584 49.1488L32.9238 46.8842C33.2366 46.5715 33.2366 46.0645 32.924 45.7517Z" fill="#0073C6"/>
<path d="M38.5865 58.2094C38.2739 57.8967 37.7668 57.8967 37.454 58.2093L32.0295 63.633C31.7167 63.9457 31.7167 64.4528 32.0294 64.7655C32.342 65.0782 32.8491 65.0783 33.1619 64.7655L38.5864 59.3419C38.8992 59.0292 38.8992 58.5221 38.5865 58.2094Z" fill="#0073C6"/>
<path d="M32.1802 58.2094C31.8676 57.8967 31.3605 57.8967 31.0478 58.2093L25.6233 63.633C25.3105 63.9457 25.3105 64.4528 25.6232 64.7655C25.9357 65.0782 26.4429 65.0783 26.7557 64.7655L32.1801 59.3419C32.4929 59.0292 32.4929 58.5221 32.1802 58.2094Z" fill="#0073C6"/>
<path d="M31.7907 51.4137C31.478 51.101 30.9709 51.101 30.6582 51.4137L25.2345 56.8382C24.9218 57.151 24.9218 57.658 25.2346 57.9707C25.5473 58.2835 26.0544 58.2835 26.3671 57.9707L31.7907 52.5462C32.1034 52.2334 32.1034 51.7264 31.7907 51.4137Z" fill="#0073C6"/>
<path d="M49.911 40.0893C49.5982 39.7766 49.0913 39.7766 48.7785 40.0893L47.6461 41.2216C47.3334 41.5343 47.3334 42.0413 47.6461 42.3541C47.9589 42.6668 48.4659 42.6668 48.7787 42.3541L49.911 41.2218C50.2237 40.9091 50.2237 40.402 49.911 40.0893Z" fill="#0073C6"/>
</g>
<defs>
<clipPath id="clip0_18_536">
<rect width="41" height="41" fill="white" transform="translate(25 24)"/>
</clipPath>
</defs>
</svg>
